<?xml version="1.0" encoding="UTF-8"?>
<!-- AI Docker CLI Manager Logo (Dark Theme) - Based on Tabler Icons (MIT License) -->
<svg xmlns="http://www.w3.org/2000/svg" width="128" height="128" viewBox="0 0 24 24" fill="none" stroke="#00FF41" stroke-width="1.5" stroke-linecap="round" stroke-linejoin="round">
  <!-- Brain icon from Tabler Icons -->
  <path d="M15.5 13a3.5 3.5 0 0 0 -3.5 3.5v1a3.5 3.5 0 0 0 7 0v-1.8"/>
  <path d="M8.5 13a3.5 3.5 0 0 1 3.5 3.5v1a3.5 3.5 0 0 1 -7 0v-1.8"/>
  <path d="M17.5 16a3.5 3.5 0 0 0 0 -7h-.5"/>
  <path d="M19 9.3v-2.8a3.5 3.5 0 0 0 -7 0"/>
  <path d="M6.5 16a3.5 3.5 0 0 1 0 -7h.5"/>
  <path d="M5 9.3v-2.8a3.5 3.5 0 0 1 7 0v10"/>
  <!-- Circuit/connection dots for AI feel -->
  <circle cx="12" cy="6" r="0.5" fill="#00FF41"/>
  <circle cx="8" cy="8" r="0.3" fill="#00FF41"/>
  <circle cx="16" cy="8" r="0.3" fill="#00FF41"/>
</svg>
